<?xml version="1.0" encoding="utf-8"?>
<svg version="1.1" xmlns:xlink="http://www.w3.org/1999/xlink" width="40px" height="46px" xmlns="http://www.w3.org/2000/svg">
  <g transform="matrix(1 0 0 1 -110 -152 )">
    <path d="M 39.9005681818182 35.1438802083332  C 39.9668560606061 36.1521267361112  40 37.1853298611112  40 38.2434895833332  C 40 40.6393229166668  39.3087121212121 42.5310329861112  37.9261363636363 43.9186197916668  C 36.5435606060606 45.3062065972221  34.7064393939394 46  32.4147727272727 46  L 7.58522727272725 46  C 5.29356060606059 46  3.45643939393941 45.3062065972221  2.07386363636365 43.9186197916668  C 0.691287878787875 42.5310329861112  0 40.6393229166668  0 38.2434895833332  C 0 37.1853298611112  0.0331439393939092 36.1521267361112  0.0994318181818414 35.1438802083332  C 0.165719696969717 34.1356336805556  0.298295454545467 33.0475260416668  0.497159090909093 31.8795572916668  C 0.696022727272748 30.7115885416668  0.946969696969717 29.6284722222221  1.25 28.6302083333332  C 1.55303030303028 27.6319444444444  1.96022727272725 26.6586371527779  2.47159090909091 25.7102864583332  C 2.98295454545453 24.7619357638888  3.57007575757575 23.9533420138888  4.23295454545453 23.2845052083332  C 4.89583333333334 22.6156684027779  5.70549242424241 22.0815972222221  6.66193181818184 21.6822916666668  C 7.61837121212122 21.2829861111112  8.67424242424246 21.0833333333332  9.82954545454547 21.0833333333332  C 10 21.0833333333332  10.3977272727273 21.2979600694444  11.0227272727273 21.7272135416668  C 11.6477272727273 22.1564670138888  12.3532196969697 22.6356336805556  13.1392045454545 23.1647135416668  C 13.9251893939394 23.6937934027779  14.9479166666667 24.1729600694444  16.2073863636363 24.6022135416668  C 17.4668560606061 25.0314670138888  18.7310606060606 25.24609375  20 25.24609375  C 21.2689393939394 25.24609375  22.5331439393939 25.0314670138888  23.7926136363637 24.6022135416668  C 25.0520833333333 24.1729600694444  26.0748106060606 23.6937934027779  26.8607954545455 23.1647135416668  C 27.6467803030303 22.6356336805556  28.3522727272727 22.1564670138888  28.9772727272727 21.7272135416668  C 29.6022727272727 21.2979600694444  30 21.0833333333332  30.1704545454545 21.0833333333332  C 31.3257575757576 21.0833333333332  32.3816287878788 21.2829861111112  33.3380681818182 21.6822916666668  C 34.2945075757576 22.0815972222221  35.1041666666667 22.6156684027779  35.7670454545455 23.2845052083332  C 36.4299242424242 23.9533420138888  37.0170454545455 24.7619357638888  37.5284090909091 25.7102864583332  C 38.0397727272727 26.6586371527779  38.4469696969697 27.6319444444444  38.75 28.6302083333332  C 39.0530303030303 29.6284722222221  39.3039772727273 30.7115885416668  39.5028409090909 31.8795572916668  C 39.7017045454545 33.0475260416668  39.8342803030303 34.1356336805556  39.9005681818182 35.1438802083332  Z M 27.7130681818182 3.369140625  C 29.84375 5.615234375  30.9090909090909 8.32552083333323  30.9090909090909 11.5  C 30.9090909090909 14.6744791666668  29.84375 17.384765625  27.7130681818182 19.630859375  C 25.5823863636363 21.876953125  23.0113636363637 23  20 23  C 16.9886363636363 23  14.4176136363637 21.876953125  12.2869318181818 19.630859375  C 10.15625 17.384765625  9.09090909090909 14.6744791666668  9.09090909090909 11.5  C 9.09090909090909 8.32552083333323  10.15625 5.615234375  12.2869318181818 3.369140625  C 14.4176136363637 1.123046875  16.9886363636363 0  20 0  C 23.0113636363637 0  25.5823863636363 1.123046875  27.7130681818182 3.369140625  Z " fill-rule="nonzero" fill="#333333" stroke="none" transform="matrix(1 0 0 1 110 152 )" />
  </g>
</svg>