<?xml version="1.0" encoding="utf-8"?>
<svg version="1.1" xmlns:xlink="http://www.w3.org/1999/xlink" width="12px" height="13px" xmlns="http://www.w3.org/2000/svg">
  <g transform="matrix(1 0 0 1 -273 -421 )">
    <path d="M 7.10559006211179 11.6192384769539  C 7.18840579710144 11.7060788243153  7.22981366459626 11.8059452237809  7.22981366459626 11.9188376753507  C 7.22981366459626 12.0317301269205  7.18840579710144 12.1315965263861  7.10559006211179 12.2184368737475  L 6.48447204968943 12.8697394789579  C 6.40165631469981 12.9565798263193  6.3064182194617 13  6.19875776397515 13  C 6.0910973084886 13  5.99585921325053 12.9565798263193  5.91304347826087 12.8697394789579  L 0.124223602484477 6.7995991983968  C 0.0414078674948257 6.7127588510354  0 6.61289245156979  0 6.5  C 0 6.38710754843018  0.0414078674948257 6.2872411489646  0.124223602484477 6.20040080160319  L 5.91304347826087 0.130260521042089  C 5.99585921325053 0.043420173680687  6.0910973084886 0  6.19875776397515 0  C 6.3064182194617 0  6.40165631469981 0.043420173680687  6.48447204968943 0.130260521042089  L 7.10559006211179 0.781563126252507  C 7.18840579710144 0.868403473613881  7.22981366459626 0.968269873079492  7.22981366459626 1.08116232464931  C 7.22981366459626 1.1940547762191  7.18840579710144 1.29392117568472  7.10559006211179 1.38076152304609  L 2.22360248447205 6.5  L 7.10559006211179 11.6192384769539  Z M 11.8757763975155 11.6192384769539  C 11.9585921325052 11.7060788243153  12 11.8059452237809  12 11.9188376753507  C 12 12.0317301269205  11.9585921325052 12.1315965263861  11.8757763975155 12.2184368737475  L 11.2546583850932 12.8697394789579  C 11.1718426501035 12.9565798263193  11.0766045548654 13  10.9689440993789 13  C 10.8612836438923 13  10.7660455486542 12.9565798263193  10.6832298136646 12.8697394789579  L 4.89440993788821 6.7995991983968  C 4.81159420289856 6.7127588510354  4.77018633540374 6.61289245156979  4.77018633540374 6.5  C 4.77018633540374 6.38710754843018  4.81159420289856 6.2872411489646  4.89440993788821 6.20040080160319  L 10.6832298136646 0.130260521042089  C 10.7660455486542 0.043420173680687  10.8612836438923 0  10.9689440993789 0  C 11.0766045548654 0  11.1718426501035 0.043420173680687  11.2546583850932 0.130260521042089  L 11.8757763975155 0.781563126252507  C 11.9585921325052 0.868403473613881  12 0.968269873079492  12 1.08116232464931  C 12 1.1940547762191  11.9585921325052 1.29392117568472  11.8757763975155 1.38076152304609  L 6.99378881987579 6.5  L 11.8757763975155 11.6192384769539  Z " fill-rule="nonzero" fill="#000000" stroke="none" transform="matrix(1 0 0 1 273 421 )" />
  </g>
</svg>