<?xml version="1.0" encoding="utf-8"?>
<svg version="1.1" xmlns:xlink="http://www.w3.org/1999/xlink" width="527px" height="148px" xmlns="http://www.w3.org/2000/svg">
  <g transform="matrix(1 0 0 1 -430 -103 )">
    <path d="M 430 103  L 957 103  L 957 251  L 430 251  L 430 103  " fill-rule="nonzero" fill="#cccccc" stroke="none" />
    <path d="M 440 113  L 947 113  L 947 241  L 440 241  L 440 113  " fill-rule="nonzero" fill="#ffffff" stroke="none" />
    <path d="M 715.14 147.4  C 708.924 147.4  704.04 142.516  704.04 136.3  C 704.04 130.084  708.924 125.2  715.14 125.2  C 721.356 125.2  726.24 130.084  726.24 136.3  C 726.24 142.516  721.356 147.4  715.14 147.4  " fill-rule="nonzero" fill="#cccccc" stroke="none" />
    <path d="M 444 238  L 444 171.45  L 569 141.2  L 744 217.611385199241  L 844 159.35  L 944 217.611385199241  L 944 238  L 444 238  " fill-rule="nonzero" fill="#169bd5" stroke="none" />
  </g>
</svg>