<?xml version="1.0" encoding="utf-8"?>
<svg version="1.1" xmlns:xlink="http://www.w3.org/1999/xlink" width="134px" height="242px" xmlns="http://www.w3.org/2000/svg">
  <g transform="matrix(1 0 0 1 -685 -262 )">
    <path d="M 685 262  L 819 262  L 819 504  L 685 504  L 685 262  " fill-rule="nonzero" fill="#cccccc" stroke="none" />
    <path d="M 694 271  L 810 271  L 810 495  L 694 495  L 694 271  " fill-rule="nonzero" fill="#ffffff" stroke="none" />
    <path d="M 764.73 318.4  C 759.102 318.4  754.68 313.978  754.68 308.35  C 754.68 302.722  759.102 298.3  764.73 298.3  C 770.358 298.3  774.78 302.722  774.78 308.35  C 774.78 313.978  770.358 318.4  764.73 318.4  " fill-rule="nonzero" fill="#cccccc" stroke="none" />
    <path d="M 698 492  L 698 372.65  L 725.25 318.4  L 763.4 361.8  L 785.2 350.95  L 807 361.8  L 807 492  L 698 492  " fill-rule="nonzero" fill="#169bd5" stroke="none" />
  </g>
</svg>