<?xml version="1.0" encoding="utf-8"?>
<svg version="1.1" xmlns:xlink="http://www.w3.org/1999/xlink" width="154px" height="242px" xmlns="http://www.w3.org/2000/svg">
  <g transform="matrix(1 0 0 1 -263 -262 )">
    <path d="M 263 262  L 417 262  L 417 504  L 263 504  L 263 262  " fill-rule="nonzero" fill="#cccccc" stroke="none" />
    <path d="M 274 273  L 406 273  L 406 493  L 274 493  L 274 273  " fill-rule="nonzero" fill="#ffffff" stroke="none" />
    <path d="M 354.63 321.4  C 348.162 321.4  343.08 316.318  343.08 309.85  C 343.08 303.382  348.162 298.3  354.63 298.3  C 361.098 298.3  366.18 303.382  366.18 309.85  C 366.18 316.318  361.098 321.4  354.63 321.4  " fill-rule="nonzero" fill="#cccccc" stroke="none" />
    <path d="M 278 489  L 278 372.4  L 309 319.4  L 352.4 361.8  L 377.2 351.2  L 402 361.8  L 402 489  L 278 489  " fill-rule="nonzero" fill="#169bd5" stroke="none" />
  </g>
</svg>