<?xml version="1.0" encoding="utf-8"?>
<svg version="1.1" xmlns:xlink="http://www.w3.org/1999/xlink" width="799px" height="224px" xmlns="http://www.w3.org/2000/svg">
  <g transform="matrix(1 0 0 1 -652 -160 )">
    <path d="M 652 160  L 1451 160  L 1451 384  L 652 384  L 652 160  " fill-rule="nonzero" fill="#cccccc" stroke="none" />
    <path d="M 668 176  L 1435 176  L 1435 368  L 668 368  L 668 176  " fill-rule="nonzero" fill="#ffffff" stroke="none" />
    <path d="M 1084.28 227.2  C 1074.872 227.2  1067.48 219.808  1067.48 210.4  C 1067.48 200.992  1074.872 193.6  1084.28 193.6  C 1093.688 193.6  1101.08 200.992  1101.08 210.4  C 1101.08 219.808  1093.688 227.2  1084.28 227.2  " fill-rule="nonzero" fill="#cccccc" stroke="none" />
    <path d="M 674 363  L 674 263.45  L 863 218.2  L 1127.6 332.553942428035  L 1278.8 245.35  L 1430 332.553942428035  L 1430 363  L 674 363  " fill-rule="nonzero" fill="#169bd5" stroke="none" />
  </g>
</svg>