<?xml version="1.0" encoding="utf-8"?>
<svg version="1.1" xmlns:xlink="http://www.w3.org/1999/xlink" width="393px" height="172px" xmlns="http://www.w3.org/2000/svg">
  <g transform="matrix(1 0 0 1 -652 -401 )">
    <path d="M 652 401  L 1045 401  L 1045 573  L 652 573  L 652 401  " fill-rule="nonzero" fill="#cccccc" stroke="none" />
    <path d="M 664 413  L 1033 413  L 1033 561  L 664 561  L 664 413  " fill-rule="nonzero" fill="#ffffff" stroke="none" />
    <path d="M 869.26 452.6  C 862.036 452.6  856.36 446.924  856.36 439.7  C 856.36 432.476  862.036 426.8  869.26 426.8  C 876.484 426.8  882.16 432.476  882.16 439.7  C 882.16 446.924  876.484 452.6  869.26 452.6  " fill-rule="nonzero" fill="#cccccc" stroke="none" />
    <path d="M 669 557  L 669 480.55  L 759 445.8  L 885 520.499236641221  L 957 466.65  L 1029 520.499236641221  L 1029 557  L 669 557  " fill-rule="nonzero" fill="#169bd5" stroke="none" />
  </g>
</svg>