<?xml version="1.0" encoding="utf-8"?>
<svg version="1.1" xmlns:xlink="http://www.w3.org/1999/xlink" width="151px" height="185px" xmlns="http://www.w3.org/2000/svg">
  <g transform="matrix(1 0 0 1 -652 -583 )">
    <path d="M 652 583  L 803 583  L 803 768  L 652 768  L 652 583  " fill-rule="nonzero" fill="#cccccc" stroke="none" />
    <path d="M 663 594  L 792 594  L 792 757  L 663 757  L 663 594  " fill-rule="nonzero" fill="#ffffff" stroke="none" />
    <path d="M 741.845 633.4  C 735.503 633.4  730.52 628.417  730.52 622.075  C 730.52 615.733  735.503 610.75  741.845 610.75  C 748.187 610.75  753.17 615.733  753.17 622.075  C 753.17 628.417  748.187 633.4  741.845 633.4  " fill-rule="nonzero" fill="#cccccc" stroke="none" />
    <path d="M 667 753  L 667 667.75  L 697.25 629  L 739.6 660  L 763.8 652.25  L 788 660  L 788 753  L 667 753  " fill-rule="nonzero" fill="#169bd5" stroke="none" />
  </g>
</svg>