<?xml version="1.0" encoding="utf-8"?>
<svg version="1.1" xmlns:xlink="http://www.w3.org/1999/xlink" width="317px" height="601px" xmlns="http://www.w3.org/2000/svg">
  <g transform="matrix(1 0 0 1 -63 -167 )">
    <path d="M 63 167  L 380 167  L 380 768  L 63 768  L 63 167  " fill-rule="nonzero" fill="#cccccc" stroke="none" />
    <path d="M 85 189  L 358 189  L 358 746  L 85 746  L 85 189  " fill-rule="nonzero" fill="#ffffff" stroke="none" />
    <path d="M 251.615 304.7  C 238.301 304.7  227.84 294.239  227.84 280.925  C 227.84 267.611  238.301 257.15  251.615 257.15  C 264.929 257.15  275.39 267.611  275.39 280.925  C 275.39 294.239  264.929 304.7  251.615 304.7  " fill-rule="nonzero" fill="#cccccc" stroke="none" />
    <path d="M 93 738  L 93 440.45  L 157.25 305.2  L 247.2 413.4  L 298.6 386.35  L 350 413.4  L 350 738  L 93 738  " fill-rule="nonzero" fill="#169bd5" stroke="none" />
  </g>
</svg>