<?xml version="1.0" encoding="utf-8"?>
<svg version="1.1" xmlns:xlink="http://www.w3.org/1999/xlink" width="182px" height="178px" xmlns="http://www.w3.org/2000/svg">
  <g transform="matrix(1 0 0 1 -652 -401 )">
    <path d="M 652 401  L 834 401  L 834 579  L 652 579  L 652 401  " fill-rule="nonzero" fill="#cccccc" stroke="none" />
    <path d="M 664 413  L 822 413  L 822 567  L 664 567  L 664 413  " fill-rule="nonzero" fill="#ffffff" stroke="none" />
    <path d="M 759.99 454.4  C 752.514 454.4  746.64 448.526  746.64 441.05  C 746.64 433.574  752.514 427.7  759.99 427.7  C 767.466 427.7  773.34 433.574  773.34 441.05  C 773.34 448.526  767.466 454.4  759.99 454.4  " fill-rule="nonzero" fill="#cccccc" stroke="none" />
    <path d="M 669 563  L 669 483.25  L 706.25 447  L 758.4 477.912087912088  L 788.2 468.75  L 818 477.912087912088  L 818 563  L 669 563  " fill-rule="nonzero" fill="#169bd5" stroke="none" />
  </g>
</svg>