<?xml version="1.0" encoding="utf-8"?>
<svg version="1.1" xmlns:xlink="http://www.w3.org/1999/xlink" width="22px" height="22px" xmlns="http://www.w3.org/2000/svg">
  <g transform="matrix(1 0 0 1 -283 -243 )">
    <path d="M 17.859375 10.140625  C 17.953125 10.234375  18 10.3541666666667  18 10.5  L 18 11.5  C 18 11.6458333333333  17.953125 11.765625  17.859375 11.859375  C 17.765625 11.953125  17.6458333333333 12  17.5 12  L 12 12  L 12 17.5  C 12 17.6458333333333  11.953125 17.765625  11.859375 17.859375  C 11.765625 17.953125  11.6458333333333 18  11.5 18  L 10.5 18  C 10.3541666666667 18  10.234375 17.953125  10.140625 17.859375  C 10.046875 17.765625  10 17.6458333333333  10 17.5  L 10 12  L 4.5 12  C 4.35416666666669 12  4.234375 11.953125  4.140625 11.859375  C 4.046875 11.765625  4 11.6458333333333  4 11.5  L 4 10.5  C 4 10.3541666666667  4.046875 10.234375  4.140625 10.140625  C 4.234375 10.046875  4.35416666666669 10  4.5 10  L 10 10  L 10 4.5  C 10 4.35416666666669  10.046875 4.234375  10.140625 4.140625  C 10.234375 4.046875  10.3541666666667 4  10.5 4  L 11.5 4  C 11.6458333333333 4  11.765625 4.046875  11.859375 4.140625  C 11.953125 4.234375  12 4.35416666666669  12 4.5  L 12 10  L 17.5 10  C 17.6458333333333 10  17.765625 10.046875  17.859375 10.140625  Z M 19.265625 19.265625  C 19.7552083333333 18.7760416666667  20 18.1875  20 17.5  L 20 4.5  C 20 3.8125  19.7552083333333 3.22395833333331  19.265625 2.734375  C 18.7760416666667 2.24479166666669  18.1875 2  17.5 2  L 4.5 2  C 3.8125 2  3.22395833333331 2.24479166666669  2.734375 2.734375  C 2.24479166666669 3.22395833333331  2 3.8125  2 4.5  L 2 17.5  C 2 18.1875  2.24479166666669 18.7760416666667  2.734375 19.265625  C 3.22395833333331 19.7552083333333  3.8125 20  4.5 20  L 17.5 20  C 18.1875 20  18.7760416666667 19.7552083333333  19.265625 19.265625  Z M 20.6796875 1.3203125  C 21.5598958333333 2.20052083333331  22 3.26041666666669  22 4.5  L 22 17.5  C 22 18.7395833333333  21.5598958333333 19.7994791666667  20.6796875 20.6796875  C 19.7994791666667 21.5598958333333  18.7395833333333 22  17.5 22  L 4.5 22  C 3.26041666666669 22  2.20052083333331 21.5598958333333  1.3203125 20.6796875  C 0.440104166666686 19.7994791666667  0 18.7395833333333  0 17.5  L 0 4.5  C 0 3.26041666666669  0.440104166666686 2.20052083333331  1.3203125 1.3203125  C 2.20052083333331 0.440104166666686  3.26041666666669 0  4.5 0  L 17.5 0  C 18.7395833333333 0  19.7994791666667 0.440104166666686  20.6796875 1.3203125  Z " fill-rule="nonzero" fill="#000000" stroke="none" transform="matrix(1 0 0 1 283 243 )" />
  </g>
</svg>