<?xml version="1.0" encoding="utf-8"?>
<svg version="1.1" xmlns:xlink="http://www.w3.org/1999/xlink" width="614px" height="362px" xmlns="http://www.w3.org/2000/svg">
  <g transform="matrix(1 0 0 1 -42 -63 )">
    <path d="M 42 63  L 656 63  L 656 425  L 42 425  L 42 63  " fill-rule="nonzero" fill="#cccccc" stroke="none" />
    <path d="M 67 88  L 631 88  L 631 400  L 67 400  L 67 88  " fill-rule="nonzero" fill="#ffffff" stroke="none" />
    <path d="M 388.43 171.6  C 373.226 171.6  361.28 159.654  361.28 144.45  C 361.28 129.246  373.226 117.3  388.43 117.3  C 403.634 117.3  415.58 129.246  415.58 144.45  C 415.58 159.654  403.634 171.6  388.43 171.6  " fill-rule="nonzero" fill="#cccccc" stroke="none" />
    <path d="M 76 391  L 76 229.3  L 212.5 155.8  L 403.6 286.998697068404  L 512.8 199.9  L 622 286.998697068404  L 622 391  L 76 391  " fill-rule="nonzero" fill="#169bd5" stroke="none" />
  </g>
</svg>