<?xml version="1.0" encoding="utf-8"?>
<svg version="1.1" xmlns:xlink="http://www.w3.org/1999/xlink" width="167px" height="233px" xmlns="http://www.w3.org/2000/svg">
  <g transform="matrix(1 0 0 1 -42 -446 )">
    <path d="M 42 446  L 209 446  L 209 679  L 42 679  L 42 446  " fill-rule="nonzero" fill="#cccccc" stroke="none" />
    <path d="M 54 458  L 197 458  L 197 667  L 54 667  L 54 458  " fill-rule="nonzero" fill="#ffffff" stroke="none" />
    <path d="M 141.365 506  C 134.351 506  128.84 500.489  128.84 493.475  C 128.84 486.461  134.351 480.95  141.365 480.95  C 148.379 480.95  153.89 486.461  153.89 493.475  C 153.89 500.489  148.379 506  141.365 506  " fill-rule="nonzero" fill="#cccccc" stroke="none" />
    <path d="M 58 663  L 58 552.45  L 91.75 502.2  L 139 542.4  L 166 532.35  L 193 542.4  L 193 663  L 58 663  " fill-rule="nonzero" fill="#169bd5" stroke="none" />
  </g>
</svg>