<?xml version="1.0" encoding="utf-8"?>
<svg version="1.1" xmlns:xlink="http://www.w3.org/1999/xlink" width="29px" height="29px" xmlns="http://www.w3.org/2000/svg">
  <g transform="matrix(1 0 0 1 -587 -661 )">
    <path d="M 7.2216796875 1.94466145833337  C 9.44325086805554 0.648220486111086  11.8693576388889 0  14.5 0  C 17.1306423611111 0  19.5567491319445 0.648220486111086  21.7783203125 1.94466145833337  C 23.9998914930555 3.24110243055554  25.7588975694445 5.00010850694446  27.0553385416666 7.2216796875  C 28.3517795138889 9.44325086805554  29 11.8693576388889  29 14.5  C 29 17.1306423611111  28.3517795138889 19.5567491319445  27.0553385416666 21.7783203125  C 25.7588975694445 23.9998914930555  23.9998914930555 25.7588975694445  21.7783203125 27.0553385416666  C 19.5567491319445 28.3517795138889  17.1306423611111 29  14.5 29  C 11.8693576388889 29  9.44325086805554 28.3517795138889  7.2216796875 27.0553385416666  C 5.00010850694446 25.7588975694445  3.24110243055554 23.9998914930555  1.94466145833337 21.7783203125  C 0.648220486111086 19.5567491319445  0 17.1306423611111  0 14.5  C 0 11.8693576388889  0.648220486111086 9.44325086805554  1.94466145833337 7.2216796875  C 3.24110243055554 5.00010850694446  5.00010850694446 3.24110243055554  7.2216796875 1.94466145833337  Z M 11.4791666666666 21.580078125  L 21.75 15.5384114583334  C 22.1527777777778 15.3118489583334  22.3541666666666 14.9657118055555  22.3541666666666 14.5  C 22.3541666666666 14.0342881944445  22.1527777777778 13.6881510416666  21.75 13.4615885416666  L 11.4791666666666 7.419921875  C 11.0889756944445 7.18077256944446  10.6861979166666 7.17447916666663  10.2708333333334 7.40104166666663  C 9.86805555555554 7.64019097222217  9.66666666666663 7.99262152777783  10 8.45833333333337  L 10 20.5416666666666  C 9.66666666666663 21.0073784722222  9.86805555555554 21.3598090277778  10.2708333333334 21.5989583333334  C 10.4722222222222 21.6996527777778  10.6736111111111 21.75  10.875 21.75  C 11.0889756944445 21.75  11.2903645833334 21.693359375  11.4791666666666 21.580078125  Z " fill-rule="nonzero" fill="#000000" stroke="none" transform="matrix(1 0 0 1 587 661 )" />
  </g>
</svg>