<?xml version="1.0" encoding="utf-8"?>
<svg version="1.1" xmlns:xlink="http://www.w3.org/1999/xlink" width="29px" height="25px" xmlns="http://www.w3.org/2000/svg">
  <g transform="matrix(1 0 0 1 -633 -663 )">
    <path d="M 12.2181919642857 13.2305194805194  L 0.72823660714289 24.7564935064935  C 0.523251488095184 24.9621212121212  0.350632440476147 25.0324675324675  0.210379464285666 24.9675324675325  C 0.070126488095184 24.9025974025974  0 24.7294372294373  0 24.4480519480519  L 0 0.551948051948102  C 0 0.270562770562719  0.070126488095184 0.0974025974026063  0.210379464285666 0.0324675324675354  C 0.350632440476147 -0.0324675324675354  0.523251488095184 0.0378787878787534  0.72823660714289 0.243506493506516  L 12.2181919642857 11.7694805194806  C 12.3152901785714 11.8668831168832  12.3854166666666 11.969696969697  13 12.077922077922  L 13 0.551948051948102  C 12.4285714285714 0.270562770562719  12.4986979166666 0.0974025974026063  12.6389508928571 0.0324675324675354  C 12.7792038690476 -0.0324675324675354  12.9518229166666 0.0378787878787534  13.1568080357143 0.243506493506516  L 24.6467633928571 11.7694805194806  C 24.7438616071429 11.8668831168832  24.8139880952381 11.969696969697  24.8571428571429 12.077922077922  L 24.8571428571429 1.07142857142856  C 24.8571428571429 0.790043290043286  24.9596354166666 0.54653679653677  25.1646205357143 0.340909090909122  C 25.3696056547619 0.13528138528136  25.6123511904761 0.0324675324675354  25.8928571428571 0.0324675324675354  L 27.9642857142857 0.0324675324675354  C 28.2447916666666 0.0324675324675354  28.487537202381 0.13528138528136  28.6925223214286 0.340909090909122  C 28.8975074404761 0.54653679653677  29 0.790043290043286  29 1.07142857142856  L 29 23.9285714285714  C 29 24.2099567099567  28.8975074404761 24.4534632034632  28.6925223214286 24.6590909090909  C 28.487537202381 24.8647186147186  28.2447916666666 24.9675324675325  27.9642857142857 24.9675324675325  L 25.8928571428571 24.9675324675325  C 25.6123511904761 24.9675324675325  25.3696056547619 24.8647186147186  25.1646205357143 24.6590909090909  C 24.9596354166666 24.4534632034632  24.8571428571429 24.2099567099567  24.8571428571429 23.9285714285714  L 24.8571428571429 12.922077922078  C 24.8139880952381 13.030303030303  24.7438616071429 13.1331168831168  24.6467633928571 13.2305194805194  L 13.1568080357143 24.7564935064935  C 12.9518229166666 24.9621212121212  12.7792038690476 25.0324675324675  12.6389508928571 24.9675324675325  C 12.4986979166666 24.9025974025974  12.4285714285714 24.7294372294373  13 24.4480519480519  L 13 12.922077922078  C 12.3854166666666 13.030303030303  12.3152901785714 13.1331168831168  12.2181919642857 13.2305194805194  Z " fill-rule="nonzero" fill="#000000" stroke="none" transform="matrix(1 0 0 1 633 663 )" />
  </g>
</svg>