<?xml version="1.0" encoding="utf-8"?>
<svg version="1.1" xmlns:xlink="http://www.w3.org/1999/xlink" width="29px" height="25px" xmlns="http://www.w3.org/2000/svg">
  <g transform="matrix(1 0 0 1 -541 -663 )">
    <path d="M 16.7818080357143 11.7694805194806  L 28.2717633928571 0.243506493506516  C 28.4767485119048 0.0378787878787534  28.6493675595239 -0.0324675324675354  28.7896205357143 0.0324675324675354  C 28.9298735119048 0.0974025974026063  29 0.270562770562719  29 0.551948051948102  L 29 24.4480519480519  C 29 24.7294372294373  28.9298735119048 24.9025974025974  28.7896205357143 24.9675324675325  C 28.6493675595239 25.0324675324675  28.4767485119048 24.9621212121212  28.2717633928571 24.7564935064935  L 16.7818080357143 13.2305194805194  C 16.6847098214286 13.1331168831168  16.6145833333333 13.030303030303  16 12.922077922078  L 16 24.4480519480519  C 16.5714285714286 24.7294372294373  16.5013020833333 24.9025974025974  16.3610491071428 24.9675324675325  C 16.2207961309524 25.0324675324675  16.0481770833333 24.9621212121212  15.8431919642857 24.7564935064935  L 4.35323660714283 13.2305194805194  C 4.25613839285717 13.1331168831168  4.18601190476193 13.030303030303  4.14285714285717 12.922077922078  L 4.14285714285717 23.9285714285714  C 4.14285714285717 24.2099567099567  4.04036458333331 24.4534632034632  3.83537946428572 24.6590909090909  C 3.63039434523807 24.8647186147186  3.3876488095238 24.9675324675325  3.10714285714283 24.9675324675325  L 1.03571428571428 24.9675324675325  C 0.755208333333314 24.9675324675325  0.512462797619037 24.8647186147186  0.307477678571445 24.6590909090909  C 0.102492559523796 24.4534632034632  0 24.2099567099567  0 23.9285714285714  L 0 1.07142857142856  C 0 0.790043290043286  0.102492559523796 0.54653679653677  0.307477678571445 0.340909090909122  C 0.512462797619037 0.13528138528136  0.755208333333314 0.0324675324675354  1.03571428571428 0.0324675324675354  L 3.10714285714283 0.0324675324675354  C 3.3876488095238 0.0324675324675354  3.63039434523807 0.13528138528136  3.83537946428572 0.340909090909122  C 4.04036458333331 0.54653679653677  4.14285714285717 0.790043290043286  4.14285714285717 1.07142857142856  L 4.14285714285717 12.077922077922  C 4.18601190476193 11.969696969697  4.25613839285717 11.8668831168832  4.35323660714283 11.7694805194806  L 15.8431919642857 0.243506493506516  C 16.0481770833333 0.0378787878787534  16.2207961309524 -0.0324675324675354  16.3610491071428 0.0324675324675354  C 16.5013020833333 0.0974025974026063  16.5714285714286 0.270562770562719  16 0.551948051948102  L 16 12.077922077922  C 16.6145833333333 11.969696969697  16.6847098214286 11.8668831168832  16.7818080357143 11.7694805194806  Z " fill-rule="nonzero" fill="#000000" stroke="none" transform="matrix(1 0 0 1 541 663 )" />
  </g>
</svg>