<?xml version="1.0" encoding="utf-8"?>
<svg version="1.1" xmlns:xlink="http://www.w3.org/1999/xlink" width="12px" height="12px" viewBox="253 1185  12 12" xmlns="http://www.w3.org/2000/svg">
  <path d="M 259 1185  C 262.36 1185  265 1187.64  265 1191  C 265 1194.36  262.36 1197  259 1197  C 255.64 1197  253 1194.36  253 1191  C 253 1187.64  255.64 1185  259 1185  Z " fill-rule="nonzero" fill="#ffffff" stroke="none" />
  <path d="M 259 1185.5  C 262.08 1185.5  264.5 1187.92  264.5 1191  C 264.5 1194.08  262.08 1196.5  259 1196.5  C 255.92 1196.5  253.5 1194.08  253.5 1191  C 253.5 1187.92  255.92 1185.5  259 1185.5  Z " stroke-width="1" stroke="#797979" fill="none" />
  <path d="M 259 1194  C 257.32 1194  256 1192.68  256 1191  C 256 1189.32  257.32 1188  259 1188  C 260.68 1188  262 1189.32  262 1191  C 262 1192.68  260.68 1194  259 1194  " fill-rule="nonzero" fill="#797979" stroke="none" />
</svg>