<?xml version="1.0" encoding="utf-8"?>
<svg version="1.1" xmlns:xlink="http://www.w3.org/1999/xlink" width="1099px" height="224px" xmlns="http://www.w3.org/2000/svg">
  <g transform="matrix(1 0 0 1 -42 -55 )">
    <path d="M 42 55  L 1141 55  L 1141 279  L 42 279  L 42 55  " fill-rule="nonzero" fill="#cccccc" stroke="none" />
    <path d="M 58 71  L 1125 71  L 1125 263  L 58 263  L 58 71  " fill-rule="nonzero" fill="#ffffff" stroke="none" />
    <path d="M 630.28 122.2  C 620.872 122.2  613.48 114.808  613.48 105.4  C 613.48 95.992  620.872 88.6  630.28 88.6  C 639.688 88.6  647.08 95.992  647.08 105.4  C 647.08 114.808  639.688 122.2  630.28 122.2  " fill-rule="nonzero" fill="#cccccc" stroke="none" />
    <path d="M 64 258  L 64 158.45  L 328 113.2  L 697.6 235.864968152866  L 908.8 140.35  L 1120 235.864968152866  L 1120 258  L 64 258  " fill-rule="nonzero" fill="#169bd5" stroke="none" />
  </g>
</svg>