<?xml version="1.0" encoding="utf-8"?>
<svg version="1.1" xmlns:xlink="http://www.w3.org/1999/xlink" width="213px" height="190px" xmlns="http://www.w3.org/2000/svg">
  <g transform="matrix(1 0 0 1 -264 -794 )">
    <path d="M 264 794  L 477 794  L 477 984  L 264 984  L 264 794  " fill-rule="nonzero" fill="#cccccc" stroke="none" />
    <path d="M 277 807  L 464 807  L 464 971  L 277 971  L 277 807  " fill-rule="nonzero" fill="#ffffff" stroke="none" />
    <path d="M 389.01 851  C 381.03 851  374.76 844.73  374.76 836.75  C 374.76 828.77  381.03 822.5  389.01 822.5  C 396.99 822.5  403.26 828.77  403.26 836.75  C 403.26 844.73  396.99 851  389.01 851  " fill-rule="nonzero" fill="#cccccc" stroke="none" />
    <path d="M 282 966  L 282 881.3  L 326.25 842.8  L 388.2 883.577464788732  L 423.6 865.9  L 459 883.577464788732  L 459 966  L 282 966  " fill-rule="nonzero" fill="#169bd5" stroke="none" />
  </g>
</svg>