<?xml version="1.0" encoding="utf-8"?>
<svg version="1.1" xmlns:xlink="http://www.w3.org/1999/xlink" width="21px" height="21px" xmlns="http://www.w3.org/2000/svg">
  <g transform="matrix(1 0 0 1 -726 -687 )">
    <path d="M 20.5283203125 12.3798828125  C 20.6149088541666 12.4664713541666  20.658203125 12.5690104166666  20.658203125 12.6875  C 20.658203125 12.7330729166666  20.6536458333334 12.7649739583334  20.64453125 12.783203125  C 20.0611979166666 15.2259114583334  18.83984375 17.2060546875  16.98046875 18.7236328125  C 15.12109375 20.2412109375  12.9427083333334 21  10.4453125 21  C 9.11458333333337 21  7.8271484375 20.7493489583334  6.5830078125 20.248046875  C 5.3388671875 19.7467447916666  4.22916666666663 19.03125  3.25390625 18.1015625  L 1.490234375 19.865234375  C 1.31705729166663 20.0384114583334  1.11197916666663 20.125  0.875 20.125  C 0.638020833333371 20.125  0.432942708333371 20.0384114583334  0.259765625 19.865234375  C 0.0865885416666288 19.6920572916666  0 19.4869791666666  0 19.25  L 0 13.125  C 0 12.8880208333334  0.0865885416666288 12.6829427083334  0.259765625 12.509765625  C 0.432942708333371 12.3365885416666  0.638020833333371 12.25  0.875 12.25  L 7 12.25  C 7.23697916666663 12.25  7.44205729166663 12.3365885416666  7.615234375 12.509765625  C 7.78841145833337 12.6829427083334  7.875 12.8880208333334  7.875 13.125  C 7.875 13.3619791666666  7.78841145833337 13.5670572916666  7.615234375 13.740234375  L 5.7421875 15.61328125  C 6.38932291666663 16.21484375  7.123046875 16.6796875  7.943359375 17.0078125  C 8.763671875 17.3359375  9.61588541666663 17.5  10.5 17.5  C 11.7213541666666 17.5  12.8606770833334 17.2037760416666  13.91796875 16.611328125  C 14.9752604166666 16.0188802083334  15.8229166666666 15.203125  16.4609375 14.1640625  C 16.5611979166666 14.0091145833334  16.802734375 13.4759114583334  17.185546875 12.564453125  C 17.2584635416666 12.3548177083334  17.3951822916666 12.25  17.595703125 12.25  L 20.220703125 12.25  C 20.3391927083334 12.25  20.4417317708334 12.2932942708334  20.5283203125 12.3798828125  Z M 20.740234375 1.134765625  C 20.9134114583334 1.30794270833337  21 1.51302083333337  21 1.75  L 21 7.875  C 21 8.11197916666663  20.9134114583334 8.31705729166663  20.740234375 8.490234375  C 20.5670572916666 8.66341145833337  20.3619791666666 8.75  20.125 8.75  L 14 8.75  C 13.7630208333334 8.75  13.5579427083334 8.66341145833337  13.384765625 8.490234375  C 13.2115885416666 8.31705729166663  13.125 8.11197916666663  13.125 7.875  C 13.125 7.63802083333337  13.2115885416666 7.43294270833337  13.384765625 7.259765625  L 15.271484375 5.373046875  C 13.9225260416666 4.12434895833337  12.33203125 3.5  10.5 3.5  C 9.27864583333337 3.5  8.13932291666663 3.79622395833337  7.08203125 4.388671875  C 6.02473958333337 4.98111979166663  5.17708333333337 5.796875  4.5390625 6.8359375  C 4.43880208333337 6.99088541666663  4.197265625 7.52408854166663  3.814453125 8.435546875  C 3.74153645833337 8.64518229166663  3.60481770833337 8.75  3.404296875 8.75  L 0.68359375 8.75  C 0.565104166666629 8.75  0.462565104166629 8.70670572916663  0.3759765625 8.6201171875  C 0.289388020833371 8.53352864583337  0.24609375 8.43098958333337  0.24609375 8.3125  L 0.24609375 8.216796875  C 0.838541666666629 5.77408854166663  2.06901041666663 3.7939453125  3.9375 2.2763671875  C 5.80598958333337 0.7587890625  7.99348958333337 0  10.5 0  C 11.8307291666666 0  13.125 0.2529296875  14.3828125 0.7587890625  C 15.640625 1.2646484375  16.7571614583334 1.97786458333337  17.732421875 2.8984375  L 19.509765625 1.134765625  C 19.6829427083334 0.961588541666629  19.8880208333334 0.875  20.125 0.875  C 20.3619791666666 0.875  20.5670572916666 0.961588541666629  20.740234375 1.134765625  Z " fill-rule="nonzero" fill="#000000" stroke="none" transform="matrix(1 0 0 1 726 687 )" />
  </g>
</svg>