<?xml version="1.0" encoding="utf-8"?>
<svg version="1.1" xmlns:xlink="http://www.w3.org/1999/xlink" width="12px" height="12px" viewBox="200 473  12 12" xmlns="http://www.w3.org/2000/svg">
  <path d="M 206 473  C 209.36 473  212 475.64  212 479  C 212 482.36  209.36 485  206 485  C 202.64 485  200 482.36  200 479  C 200 475.64  202.64 473  206 473  Z " fill-rule="nonzero" fill="#ffffff" stroke="none" />
  <path d="M 206 473.5  C 209.08 473.5  211.5 475.92  211.5 479  C 211.5 482.08  209.08 484.5  206 484.5  C 202.92 484.5  200.5 482.08  200.5 479  C 200.5 475.92  202.92 473.5  206 473.5  Z " stroke-width="1" stroke="#797979" fill="none" />
  <path d="M 206 482  C 204.32 482  203 480.68  203 479  C 203 477.32  204.32 476  206 476  C 207.68 476  209 477.32  209 479  C 209 480.68  207.68 482  206 482  " fill-rule="nonzero" fill="#797979" stroke="none" />
</svg>