<?xml version="1.0" encoding="utf-8"?>
<svg version="1.1" xmlns:xlink="http://www.w3.org/1999/xlink" width="12px" height="12px" viewBox="251 443  12 12" xmlns="http://www.w3.org/2000/svg">
  <path d="M 257 443  C 260.36 443  263 445.64  263 449  C 263 452.36  260.36 455  257 455  C 253.64 455  251 452.36  251 449  C 251 445.64  253.64 443  257 443  Z " fill-rule="nonzero" fill="#ffffff" stroke="none" />
  <path d="M 257 443.5  C 260.08 443.5  262.5 445.92  262.5 449  C 262.5 452.08  260.08 454.5  257 454.5  C 253.92 454.5  251.5 452.08  251.5 449  C 251.5 445.92  253.92 443.5  257 443.5  Z " stroke-width="1" stroke="#797979" fill="none" />
  <path d="M 257 452  C 255.32 452  254 450.68  254 449  C 254 447.32  255.32 446  257 446  C 258.68 446  260 447.32  260 449  C 260 450.68  258.68 452  257 452  " fill-rule="nonzero" fill="#797979" stroke="none" />
</svg>