<?xml version="1.0" encoding="utf-8"?>
<svg version="1.1" xmlns:xlink="http://www.w3.org/1999/xlink" width="12px" height="12px" viewBox="442 473  12 12" xmlns="http://www.w3.org/2000/svg">
  <path d="M 448 473  C 451.36 473  454 475.64  454 479  C 454 482.36  451.36 485  448 485  C 444.64 485  442 482.36  442 479  C 442 475.64  444.64 473  448 473  Z " fill-rule="nonzero" fill="#ffffff" stroke="none" />
  <path d="M 448 473.5  C 451.08 473.5  453.5 475.92  453.5 479  C 453.5 482.08  451.08 484.5  448 484.5  C 444.92 484.5  442.5 482.08  442.5 479  C 442.5 475.92  444.92 473.5  448 473.5  Z " stroke-width="1" stroke="#797979" fill="none" />
  <path d="M 448 482  C 446.32 482  445 480.68  445 479  C 445 477.32  446.32 476  448 476  C 449.68 476  451 477.32  451 479  C 451 480.68  449.68 482  448 482  " fill-rule="nonzero" fill="#797979" stroke="none" />
</svg>