<?xml version="1.0" encoding="utf-8"?>
<svg version="1.1" xmlns:xlink="http://www.w3.org/1999/xlink" width="12px" height="12px" viewBox="220 509  12 12" xmlns="http://www.w3.org/2000/svg">
  <path d="M 226 509  C 229.36 509  232 511.64  232 515  C 232 518.36  229.36 521  226 521  C 222.64 521  220 518.36  220 515  C 220 511.64  222.64 509  226 509  Z " fill-rule="nonzero" fill="#ffffff" stroke="none" />
  <path d="M 226 509.5  C 229.08 509.5  231.5 511.92  231.5 515  C 231.5 518.08  229.08 520.5  226 520.5  C 222.92 520.5  220.5 518.08  220.5 515  C 220.5 511.92  222.92 509.5  226 509.5  Z " stroke-width="1" stroke="#797979" fill="none" />
  <path d="M 226 518  C 224.32 518  223 516.68  223 515  C 223 513.32  224.32 512  226 512  C 227.68 512  229 513.32  229 515  C 229 516.68  227.68 518  226 518  " fill-rule="nonzero" fill="#797979" stroke="none" />
</svg>