<?xml version="1.0" encoding="utf-8"?>
<svg version="1.1" xmlns:xlink="http://www.w3.org/1999/xlink" width="12px" height="12px" viewBox="320 473  12 12" xmlns="http://www.w3.org/2000/svg">
  <path d="M 326 473  C 329.36 473  332 475.64  332 479  C 332 482.36  329.36 485  326 485  C 322.64 485  320 482.36  320 479  C 320 475.64  322.64 473  326 473  Z " fill-rule="nonzero" fill="#ffffff" stroke="none" />
  <path d="M 326 473.5  C 329.08 473.5  331.5 475.92  331.5 479  C 331.5 482.08  329.08 484.5  326 484.5  C 322.92 484.5  320.5 482.08  320.5 479  C 320.5 475.92  322.92 473.5  326 473.5  Z " stroke-width="1" stroke="#797979" fill="none" />
  <path d="M 326 482  C 324.32 482  323 480.68  323 479  C 323 477.32  324.32 476  326 476  C 327.68 476  329 477.32  329 479  C 329 480.68  327.68 482  326 482  " fill-rule="nonzero" fill="#797979" stroke="none" />
</svg>