<?xml version="1.0" encoding="utf-8"?>
<svg version="1.1" xmlns:xlink="http://www.w3.org/1999/xlink" width="12px" height="12px" viewBox="176 443  12 12" xmlns="http://www.w3.org/2000/svg">
  <path d="M 182 443  C 185.36 443  188 445.64  188 449  C 188 452.36  185.36 455  182 455  C 178.64 455  176 452.36  176 449  C 176 445.64  178.64 443  182 443  Z " fill-rule="nonzero" fill="#ffffff" stroke="none" />
  <path d="M 182 443.5  C 185.08 443.5  187.5 445.92  187.5 449  C 187.5 452.08  185.08 454.5  182 454.5  C 178.92 454.5  176.5 452.08  176.5 449  C 176.5 445.92  178.92 443.5  182 443.5  Z " stroke-width="1" stroke="#797979" fill="none" />
  <path d="M 182 452  C 180.32 452  179 450.68  179 449  C 179 447.32  180.32 446  182 446  C 183.68 446  185 447.32  185 449  C 185 450.68  183.68 452  182 452  " fill-rule="nonzero" fill="#797979" stroke="none" />
</svg>