<?xml version="1.0" encoding="utf-8"?>
<svg version="1.1" xmlns:xlink="http://www.w3.org/1999/xlink" width="12px" height="12px" viewBox="100 550  12 12" xmlns="http://www.w3.org/2000/svg">
  <path d="M 106 550  C 109.36 550  112 552.64  112 556  C 112 559.36  109.36 562  106 562  C 102.64 562  100 559.36  100 556  C 100 552.64  102.64 550  106 550  Z " fill-rule="nonzero" fill="#ffffff" stroke="none" />
  <path d="M 106 550.5  C 109.08 550.5  111.5 552.92  111.5 556  C 111.5 559.08  109.08 561.5  106 561.5  C 102.92 561.5  100.5 559.08  100.5 556  C 100.5 552.92  102.92 550.5  106 550.5  Z " stroke-width="1" stroke="#797979" fill="none" />
  <path d="M 106 559  C 104.32 559  103 557.68  103 556  C 103 554.32  104.32 553  106 553  C 107.68 553  109 554.32  109 556  C 109 557.68  107.68 559  106 559  " fill-rule="nonzero" fill="#797979" stroke="none" />
</svg>