<?xml version="1.0" encoding="utf-8"?>
<svg version="1.1" xmlns:xlink="http://www.w3.org/1999/xlink" width="12px" height="12px" viewBox="342 550  12 12" xmlns="http://www.w3.org/2000/svg">
  <path d="M 348 550  C 351.36 550  354 552.64  354 556  C 354 559.36  351.36 562  348 562  C 344.64 562  342 559.36  342 556  C 342 552.64  344.64 550  348 550  Z " fill-rule="nonzero" fill="#ffffff" stroke="none" />
  <path d="M 348 550.5  C 351.08 550.5  353.5 552.92  353.5 556  C 353.5 559.08  351.08 561.5  348 561.5  C 344.92 561.5  342.5 559.08  342.5 556  C 342.5 552.92  344.92 550.5  348 550.5  Z " stroke-width="1" stroke="#797979" fill="none" />
  <path d="M 348 559  C 346.32 559  345 557.68  345 556  C 345 554.32  346.32 553  348 553  C 349.68 553  351 554.32  351 556  C 351 557.68  349.68 559  348 559  " fill-rule="nonzero" fill="#797979" stroke="none" />
</svg>