<?xml version="1.0" encoding="utf-8"?>
<svg version="1.1" xmlns:xlink="http://www.w3.org/1999/xlink" width="12px" height="12px" viewBox="699 550  12 12" xmlns="http://www.w3.org/2000/svg">
  <path d="M 705 550  C 708.36 550  711 552.64  711 556  C 711 559.36  708.36 562  705 562  C 701.64 562  699 559.36  699 556  C 699 552.64  701.64 550  705 550  Z " fill-rule="nonzero" fill="#ffffff" stroke="none" />
  <path d="M 705 550.5  C 708.08 550.5  710.5 552.92  710.5 556  C 710.5 559.08  708.08 561.5  705 561.5  C 701.92 561.5  699.5 559.08  699.5 556  C 699.5 552.92  701.92 550.5  705 550.5  Z " stroke-width="1" stroke="#797979" fill="none" />
  <path d="M 705 559  C 703.32 559  702 557.68  702 556  C 702 554.32  703.32 553  705 553  C 706.68 553  708 554.32  708 556  C 708 557.68  706.68 559  705 559  " fill-rule="nonzero" fill="#797979" stroke="none" />
</svg>