<?xml version="1.0" encoding="utf-8"?>
<svg version="1.1" xmlns:xlink="http://www.w3.org/1999/xlink" width="12px" height="12px" viewBox="457 550  12 12" xmlns="http://www.w3.org/2000/svg">
  <path d="M 463 550  C 466.36 550  469 552.64  469 556  C 469 559.36  466.36 562  463 562  C 459.64 562  457 559.36  457 556  C 457 552.64  459.64 550  463 550  Z " fill-rule="nonzero" fill="#ffffff" stroke="none" />
  <path d="M 463 550.5  C 466.08 550.5  468.5 552.92  468.5 556  C 468.5 559.08  466.08 561.5  463 561.5  C 459.92 561.5  457.5 559.08  457.5 556  C 457.5 552.92  459.92 550.5  463 550.5  Z " stroke-width="1" stroke="#797979" fill="none" />
  <path d="M 463 559  C 461.32 559  460 557.68  460 556  C 460 554.32  461.32 553  463 553  C 464.68 553  466 554.32  466 556  C 466 557.68  464.68 559  463 559  " fill-rule="nonzero" fill="#797979" stroke="none" />
</svg>