<?xml version="1.0" encoding="utf-8"?>
<svg version="1.1" xmlns:xlink="http://www.w3.org/1999/xlink" width="12px" height="12px" viewBox="577 509  12 12" xmlns="http://www.w3.org/2000/svg">
  <path d="M 583 509  C 586.36 509  589 511.64  589 515  C 589 518.36  586.36 521  583 521  C 579.64 521  577 518.36  577 515  C 577 511.64  579.64 509  583 509  Z " fill-rule="nonzero" fill="#ffffff" stroke="none" />
  <path d="M 583 509.5  C 586.08 509.5  588.5 511.92  588.5 515  C 588.5 518.08  586.08 520.5  583 520.5  C 579.92 520.5  577.5 518.08  577.5 515  C 577.5 511.92  579.92 509.5  583 509.5  Z " stroke-width="1" stroke="#797979" fill="none" />
  <path d="M 583 518  C 581.32 518  580 516.68  580 515  C 580 513.32  581.32 512  583 512  C 584.68 512  586 513.32  586 515  C 586 516.68  584.68 518  583 518  " fill-rule="nonzero" fill="#797979" stroke="none" />
</svg>