<?xml version="1.0" encoding="utf-8"?>
<svg version="1.1" xmlns:xlink="http://www.w3.org/1999/xlink" width="12px" height="12px" viewBox="220 550  12 12" xmlns="http://www.w3.org/2000/svg">
  <path d="M 226 550  C 229.36 550  232 552.64  232 556  C 232 559.36  229.36 562  226 562  C 222.64 562  220 559.36  220 556  C 220 552.64  222.64 550  226 550  Z " fill-rule="nonzero" fill="#ffffff" stroke="none" />
  <path d="M 226 550.5  C 229.08 550.5  231.5 552.92  231.5 556  C 231.5 559.08  229.08 561.5  226 561.5  C 222.92 561.5  220.5 559.08  220.5 556  C 220.5 552.92  222.92 550.5  226 550.5  Z " stroke-width="1" stroke="#797979" fill="none" />
  <path d="M 226 559  C 224.32 559  223 557.68  223 556  C 223 554.32  224.32 553  226 553  C 227.68 553  229 554.32  229 556  C 229 557.68  227.68 559  226 559  " fill-rule="nonzero" fill="#797979" stroke="none" />
</svg>