<?xml version="1.0" encoding="utf-8"?>
<svg version="1.1" xmlns:xlink="http://www.w3.org/1999/xlink" width="12px" height="12px" viewBox="699 509  12 12" xmlns="http://www.w3.org/2000/svg">
  <path d="M 705 509  C 708.36 509  711 511.64  711 515  C 711 518.36  708.36 521  705 521  C 701.64 521  699 518.36  699 515  C 699 511.64  701.64 509  705 509  Z " fill-rule="nonzero" fill="#ffffff" stroke="none" />
  <path d="M 705 509.5  C 708.08 509.5  710.5 511.92  710.5 515  C 710.5 518.08  708.08 520.5  705 520.5  C 701.92 520.5  699.5 518.08  699.5 515  C 699.5 511.92  701.92 509.5  705 509.5  Z " stroke-width="1" stroke="#797979" fill="none" />
  <path d="M 705 518  C 703.32 518  702 516.68  702 515  C 702 513.32  703.32 512  705 512  C 706.68 512  708 513.32  708 515  C 708 516.68  706.68 518  705 518  " fill-rule="nonzero" fill="#797979" stroke="none" />
</svg>