<?xml version="1.0" encoding="utf-8"?>
<svg version="1.1" xmlns:xlink="http://www.w3.org/1999/xlink" width="12px" height="12px" viewBox="262 907  12 12" xmlns="http://www.w3.org/2000/svg">
  <path d="M 268 907  C 271.36 907  274 909.64  274 913  C 274 916.36  271.36 919  268 919  C 264.64 919  262 916.36  262 913  C 262 909.64  264.64 907  268 907  Z " fill-rule="nonzero" fill="#ffffff" stroke="none" />
  <path d="M 268 907.5  C 271.08 907.5  273.5 909.92  273.5 913  C 273.5 916.08  271.08 918.5  268 918.5  C 264.92 918.5  262.5 916.08  262.5 913  C 262.5 909.92  264.92 907.5  268 907.5  Z " stroke-width="1" stroke="#797979" fill="none" />
  <path d="M 268 916  C 266.32 916  265 914.68  265 913  C 265 911.32  266.32 910  268 910  C 269.68 910  271 911.32  271 913  C 271 914.68  269.68 916  268 916  " fill-rule="nonzero" fill="#797979" stroke="none" />
</svg>