<?xml version="1.0" encoding="utf-8"?>
<svg version="1.1" xmlns:xlink="http://www.w3.org/1999/xlink" width="12px" height="12px" viewBox="453 937  12 12" xmlns="http://www.w3.org/2000/svg">
  <path d="M 459 937  C 462.36 937  465 939.64  465 943  C 465 946.36  462.36 949  459 949  C 455.64 949  453 946.36  453 943  C 453 939.64  455.64 937  459 937  Z " fill-rule="nonzero" fill="#ffffff" stroke="none" />
  <path d="M 459 937.5  C 462.08 937.5  464.5 939.92  464.5 943  C 464.5 946.08  462.08 948.5  459 948.5  C 455.92 948.5  453.5 946.08  453.5 943  C 453.5 939.92  455.92 937.5  459 937.5  Z " stroke-width="1" stroke="#797979" fill="none" />
  <path d="M 459 946  C 457.32 946  456 944.68  456 943  C 456 941.32  457.32 940  459 940  C 460.68 940  462 941.32  462 943  C 462 944.68  460.68 946  459 946  " fill-rule="nonzero" fill="#797979" stroke="none" />
</svg>