<?xml version="1.0" encoding="utf-8"?>
<svg version="1.1" xmlns:xlink="http://www.w3.org/1999/xlink" width="12px" height="12px" viewBox="231 973  12 12" xmlns="http://www.w3.org/2000/svg">
  <path d="M 237 973  C 240.36 973  243 975.64  243 979  C 243 982.36  240.36 985  237 985  C 233.64 985  231 982.36  231 979  C 231 975.64  233.64 973  237 973  Z " fill-rule="nonzero" fill="#ffffff" stroke="none" />
  <path d="M 237 973.5  C 240.08 973.5  242.5 975.92  242.5 979  C 242.5 982.08  240.08 984.5  237 984.5  C 233.92 984.5  231.5 982.08  231.5 979  C 231.5 975.92  233.92 973.5  237 973.5  Z " stroke-width="1" stroke="#797979" fill="none" />
  <path d="M 237 982  C 235.32 982  234 980.68  234 979  C 234 977.32  235.32 976  237 976  C 238.68 976  240 977.32  240 979  C 240 980.68  238.68 982  237 982  " fill-rule="nonzero" fill="#797979" stroke="none" />
</svg>