<?xml version="1.0" encoding="utf-8"?>
<svg version="1.1" xmlns:xlink="http://www.w3.org/1999/xlink" width="12px" height="12px" viewBox="353 973  12 12" xmlns="http://www.w3.org/2000/svg">
  <path d="M 359 973  C 362.36 973  365 975.64  365 979  C 365 982.36  362.36 985  359 985  C 355.64 985  353 982.36  353 979  C 353 975.64  355.64 973  359 973  Z " fill-rule="nonzero" fill="#ffffff" stroke="none" />
  <path d="M 359 973.5  C 362.08 973.5  364.5 975.92  364.5 979  C 364.5 982.08  362.08 984.5  359 984.5  C 355.92 984.5  353.5 982.08  353.5 979  C 353.5 975.92  355.92 973.5  359 973.5  Z " stroke-width="1" stroke="#797979" fill="none" />
  <path d="M 359 982  C 357.32 982  356 980.68  356 979  C 356 977.32  357.32 976  359 976  C 360.68 976  362 977.32  362 979  C 362 980.68  360.68 982  359 982  " fill-rule="nonzero" fill="#797979" stroke="none" />
</svg>