<?xml version="1.0" encoding="utf-8"?>
<svg version="1.1" xmlns:xlink="http://www.w3.org/1999/xlink" width="12px" height="12px" viewBox="111 973  12 12" xmlns="http://www.w3.org/2000/svg">
  <path d="M 117 973  C 120.36 973  123 975.64  123 979  C 123 982.36  120.36 985  117 985  C 113.64 985  111 982.36  111 979  C 111 975.64  113.64 973  117 973  Z " fill-rule="nonzero" fill="#ffffff" stroke="none" />
  <path d="M 117 973.5  C 120.08 973.5  122.5 975.92  122.5 979  C 122.5 982.08  120.08 984.5  117 984.5  C 113.92 984.5  111.5 982.08  111.5 979  C 111.5 975.92  113.92 973.5  117 973.5  Z " stroke-width="1" stroke="#797979" fill="none" />
  <path d="M 117 982  C 115.32 982  114 980.68  114 979  C 114 977.32  115.32 976  117 976  C 118.68 976  120 977.32  120 979  C 120 980.68  118.68 982  117 982  " fill-rule="nonzero" fill="#797979" stroke="none" />
</svg>