<?xml version="1.0" encoding="utf-8"?>
<svg version="1.1" xmlns:xlink="http://www.w3.org/1999/xlink" width="12px" height="12px" viewBox="468 973  12 12" xmlns="http://www.w3.org/2000/svg">
  <path d="M 474 973  C 477.36 973  480 975.64  480 979  C 480 982.36  477.36 985  474 985  C 470.64 985  468 982.36  468 979  C 468 975.64  470.64 973  474 973  Z " fill-rule="nonzero" fill="#ffffff" stroke="none" />
  <path d="M 474 973.5  C 477.08 973.5  479.5 975.92  479.5 979  C 479.5 982.08  477.08 984.5  474 984.5  C 470.92 984.5  468.5 982.08  468.5 979  C 468.5 975.92  470.92 973.5  474 973.5  Z " stroke-width="1" stroke="#797979" fill="none" />
  <path d="M 474 982  C 472.32 982  471 980.68  471 979  C 471 977.32  472.32 976  474 976  C 475.68 976  477 977.32  477 979  C 477 980.68  475.68 982  474 982  " fill-rule="nonzero" fill="#797979" stroke="none" />
</svg>