<?xml version="1.0" encoding="utf-8"?>
<svg version="1.1" xmlns:xlink="http://www.w3.org/1999/xlink" width="12px" height="12px" viewBox="231 1014  12 12" xmlns="http://www.w3.org/2000/svg">
  <path d="M 237 1014  C 240.36 1014  243 1016.64  243 1020  C 243 1023.36  240.36 1026  237 1026  C 233.64 1026  231 1023.36  231 1020  C 231 1016.64  233.64 1014  237 1014  Z " fill-rule="nonzero" fill="#ffffff" stroke="none" />
  <path d="M 237 1014.5  C 240.08 1014.5  242.5 1016.92  242.5 1020  C 242.5 1023.08  240.08 1025.5  237 1025.5  C 233.92 1025.5  231.5 1023.08  231.5 1020  C 231.5 1016.92  233.92 1014.5  237 1014.5  Z " stroke-width="1" stroke="#797979" fill="none" />
  <path d="M 237 1023  C 235.32 1023  234 1021.68  234 1020  C 234 1018.32  235.32 1017  237 1017  C 238.68 1017  240 1018.32  240 1020  C 240 1021.68  238.68 1023  237 1023  " fill-rule="nonzero" fill="#797979" stroke="none" />
</svg>