<?xml version="1.0" encoding="utf-8"?>
<svg version="1.1" xmlns:xlink="http://www.w3.org/1999/xlink" width="12px" height="12px" viewBox="588 973  12 12" xmlns="http://www.w3.org/2000/svg">
  <path d="M 594 973  C 597.36 973  600 975.64  600 979  C 600 982.36  597.36 985  594 985  C 590.64 985  588 982.36  588 979  C 588 975.64  590.64 973  594 973  Z " fill-rule="nonzero" fill="#ffffff" stroke="none" />
  <path d="M 594 973.5  C 597.08 973.5  599.5 975.92  599.5 979  C 599.5 982.08  597.08 984.5  594 984.5  C 590.92 984.5  588.5 982.08  588.5 979  C 588.5 975.92  590.92 973.5  594 973.5  Z " stroke-width="1" stroke="#797979" fill="none" />
  <path d="M 594 982  C 592.32 982  591 980.68  591 979  C 591 977.32  592.32 976  594 976  C 595.68 976  597 977.32  597 979  C 597 980.68  595.68 982  594 982  " fill-rule="nonzero" fill="#797979" stroke="none" />
</svg>