<?xml version="1.0" encoding="utf-8"?>
<svg version="1.1" xmlns:xlink="http://www.w3.org/1999/xlink" width="12px" height="12px" viewBox="588 1014  12 12" xmlns="http://www.w3.org/2000/svg">
  <path d="M 594 1014  C 597.36 1014  600 1016.64  600 1020  C 600 1023.36  597.36 1026  594 1026  C 590.64 1026  588 1023.36  588 1020  C 588 1016.64  590.64 1014  594 1014  Z " fill-rule="nonzero" fill="#ffffff" stroke="none" />
  <path d="M 594 1014.5  C 597.08 1014.5  599.5 1016.92  599.5 1020  C 599.5 1023.08  597.08 1025.5  594 1025.5  C 590.92 1025.5  588.5 1023.08  588.5 1020  C 588.5 1016.92  590.92 1014.5  594 1014.5  Z " stroke-width="1" stroke="#797979" fill="none" />
  <path d="M 594 1023  C 592.32 1023  591 1021.68  591 1020  C 591 1018.32  592.32 1017  594 1017  C 595.68 1017  597 1018.32  597 1020  C 597 1021.68  595.68 1023  594 1023  " fill-rule="nonzero" fill="#797979" stroke="none" />
</svg>