<?xml version="1.0" encoding="utf-8"?>
<svg version="1.1" xmlns:xlink="http://www.w3.org/1999/xlink" width="12px" height="12px" viewBox="710 1014  12 12" xmlns="http://www.w3.org/2000/svg">
  <path d="M 716 1014  C 719.36 1014  722 1016.64  722 1020  C 722 1023.36  719.36 1026  716 1026  C 712.64 1026  710 1023.36  710 1020  C 710 1016.64  712.64 1014  716 1014  Z " fill-rule="nonzero" fill="#ffffff" stroke="none" />
  <path d="M 716 1014.5  C 719.08 1014.5  721.5 1016.92  721.5 1020  C 721.5 1023.08  719.08 1025.5  716 1025.5  C 712.92 1025.5  710.5 1023.08  710.5 1020  C 710.5 1016.92  712.92 1014.5  716 1014.5  Z " stroke-width="1" stroke="#797979" fill="none" />
  <path d="M 716 1023  C 714.32 1023  713 1021.68  713 1020  C 713 1018.32  714.32 1017  716 1017  C 717.68 1017  719 1018.32  719 1020  C 719 1021.68  717.68 1023  716 1023  " fill-rule="nonzero" fill="#797979" stroke="none" />
</svg>