<?xml version="1.0" encoding="utf-8"?>
<svg version="1.1" xmlns:xlink="http://www.w3.org/1999/xlink" width="249px" height="348px" xmlns="http://www.w3.org/2000/svg">
  <g transform="matrix(1 0 0 1 -42 -81 )">
    <path d="M 42 81  L 291 81  L 291 429  L 42 429  L 42 81  " fill-rule="nonzero" fill="#cccccc" stroke="none" />
    <path d="M 59 98  L 274 98  L 274 412  L 59 412  L 59 98  " fill-rule="nonzero" fill="#ffffff" stroke="none" />
    <path d="M 190.155 170.55  C 179.697 170.55  171.48 162.333  171.48 151.875  C 171.48 141.417  179.697 133.2  190.155 133.2  C 200.613 133.2  208.83 141.417  208.83 151.875  C 208.83 162.333  200.613 170.55  190.155 170.55  " fill-rule="nonzero" fill="#cccccc" stroke="none" />
    <path d="M 65 406  L 65 239.9  L 115.75 164.4  L 186.8 224.8  L 227.4 209.7  L 268 224.8  L 268 406  L 65 406  " fill-rule="nonzero" fill="#169bd5" stroke="none" />
  </g>
</svg>