<?xml version="1.0" encoding="utf-8"?>
<svg version="1.1" xmlns:xlink="http://www.w3.org/1999/xlink" width="120px" height="118px" xmlns="http://www.w3.org/2000/svg">
  <g transform="matrix(1 0 0 1 -699 -1278 )">
    <path d="M 759 1278  C 792.6 1278  819 1303.96  819 1337  C 819 1370.04  792.6 1396  759 1396  C 725.4 1396  699 1370.04  699 1337  C 699 1303.96  725.4 1278  759 1278  Z " fill-rule="nonzero" fill="#ffffff" stroke="none" />
    <path d="M 759 1278.5  C 792.32 1278.5  818.5 1304.24  818.5 1337  C 818.5 1369.76  792.32 1395.5  759 1395.5  C 725.68 1395.5  699.5 1369.76  699.5 1337  C 699.5 1304.24  725.68 1278.5  759 1278.5  Z " stroke-width="1" stroke="#797979" fill="none" />
  </g>
</svg>