<?xml version="1.0" encoding="utf-8"?>
<svg version="1.1" xmlns:xlink="http://www.w3.org/1999/xlink" width="175px" height="185px" xmlns="http://www.w3.org/2000/svg">
  <g transform="matrix(1 0 0 1 -42 -373 )">
    <path d="M 42 373  L 217 373  L 217 558  L 42 558  L 42 373  " fill-rule="nonzero" fill="#cccccc" stroke="none" />
    <path d="M 54 385  L 205 385  L 205 546  L 54 546  L 54 385  " fill-rule="nonzero" fill="#ffffff" stroke="none" />
    <path d="M 146.125 427  C 138.775 427  133 421.225  133 413.875  C 133 406.525  138.775 400.75  146.125 400.75  C 153.475 400.75  159.25 406.525  159.25 413.875  C 159.25 421.225  153.475 427  146.125 427  " fill-rule="nonzero" fill="#cccccc" stroke="none" />
    <path d="M 59 542  L 59 458.4  L 94.5 420.4  L 144.2 450.8  L 172.6 443.2  L 201 450.8  L 201 542  L 59 542  " fill-rule="nonzero" fill="#169bd5" stroke="none" />
  </g>
</svg>