<?xml version="1.0" encoding="utf-8"?>
<svg version="1.1" xmlns:xlink="http://www.w3.org/1999/xlink" width="164px" height="135px" xmlns="http://www.w3.org/2000/svg">
  <g transform="matrix(1 0 0 1 -977 -645 )">
    <path d="M 977 645  L 1141 645  L 1141 780  L 977 780  L 977 645  " fill-rule="nonzero" fill="#cccccc" stroke="none" />
    <path d="M 986 654  L 1132 654  L 1132 771  L 986 771  L 986 654  " fill-rule="nonzero" fill="#ffffff" stroke="none" />
    <path d="M 1072.405 685.5  C 1066.735 685.5  1062.28 681.045  1062.28 675.375  C 1062.28 669.705  1066.735 665.25  1072.405 665.25  C 1078.075 665.25  1082.53 669.705  1082.53 675.375  C 1082.53 681.045  1078.075 685.5  1072.405 685.5  " fill-rule="nonzero" fill="#cccccc" stroke="none" />
    <path d="M 990 768  L 990 707.5  L 1024.75 680  L 1073.4 713.670731707317  L 1101.2 696.5  L 1129 713.670731707317  L 1129 768  L 990 768  " fill-rule="nonzero" fill="#169bd5" stroke="none" />
  </g>
</svg>